<mxfile host="app.diagrams.net" modified="2023-03-22T10:05:29.737Z" agent="5.0 (Windows NT 10.0; Win64; x64) AppleWebKit/537.36 (KHTML, like Gecko) Chrome/111.0.0.0 Safari/537.36" etag="KkY7fdn2_6Xd-gYPfgDV" version="21.0.8" type="github">
  <diagram name="第 1 页" id="mLox_zXsMJPrJibGDM8M">
    <mxGraphModel dx="794" dy="470" grid="1" gridSize="10" guides="1" tooltips="1" connect="1" arrows="1" fold="1" page="1" pageScale="1" pageWidth="827" pageHeight="1169" math="0" shadow="0">
      <root>
        <mxCell id="0" />
        <mxCell id="1" parent="0" />
        <mxCell id="eCKu4-VgmCrht83dg7p6-11" style="edgeStyle=orthogonalEdgeStyle;rounded=0;orthogonalLoop=1;jettySize=auto;html=1;entryX=0.5;entryY=0;entryDx=0;entryDy=0;" parent="1" source="eCKu4-VgmCrht83dg7p6-1" target="eCKu4-VgmCrht83dg7p6-3" edge="1">
          <mxGeometry relative="1" as="geometry" />
        </mxCell>
        <mxCell id="eCKu4-VgmCrht83dg7p6-1" value="开始" style="rounded=1;whiteSpace=wrap;html=1;fontSize=12;glass=0;strokeWidth=1;shadow=0;" parent="1" vertex="1">
          <mxGeometry x="130" y="40" width="80" height="30" as="geometry" />
        </mxCell>
        <mxCell id="eCKu4-VgmCrht83dg7p6-13" style="edgeStyle=orthogonalEdgeStyle;rounded=0;orthogonalLoop=1;jettySize=auto;html=1;entryX=0.5;entryY=0;entryDx=0;entryDy=0;" parent="1" source="eCKu4-VgmCrht83dg7p6-2" target="eCKu4-VgmCrht83dg7p6-4" edge="1">
          <mxGeometry relative="1" as="geometry" />
        </mxCell>
        <mxCell id="eCKu4-VgmCrht83dg7p6-2" value="开始读取pb文件" style="rounded=0;whiteSpace=wrap;html=1;" parent="1" vertex="1">
          <mxGeometry x="120" y="160" width="100" height="30" as="geometry" />
        </mxCell>
        <mxCell id="eCKu4-VgmCrht83dg7p6-12" style="edgeStyle=orthogonalEdgeStyle;rounded=0;orthogonalLoop=1;jettySize=auto;html=1;entryX=0.5;entryY=0;entryDx=0;entryDy=0;" parent="1" source="eCKu4-VgmCrht83dg7p6-3" target="eCKu4-VgmCrht83dg7p6-2" edge="1">
          <mxGeometry relative="1" as="geometry" />
        </mxCell>
        <mxCell id="eCKu4-VgmCrht83dg7p6-3" value="实例化指令计时器" style="rounded=0;whiteSpace=wrap;html=1;" parent="1" vertex="1">
          <mxGeometry x="115" y="100" width="110" height="30" as="geometry" />
        </mxCell>
        <mxCell id="eCKu4-VgmCrht83dg7p6-14" style="edgeStyle=orthogonalEdgeStyle;rounded=0;orthogonalLoop=1;jettySize=auto;html=1;" parent="1" source="eCKu4-VgmCrht83dg7p6-4" target="eCKu4-VgmCrht83dg7p6-6" edge="1">
          <mxGeometry relative="1" as="geometry" />
        </mxCell>
        <mxCell id="eCKu4-VgmCrht83dg7p6-4" value="初始化快照信息" style="rounded=0;whiteSpace=wrap;html=1;" parent="1" vertex="1">
          <mxGeometry x="115" y="220" width="110" height="30" as="geometry" />
        </mxCell>
        <mxCell id="eCKu4-VgmCrht83dg7p6-16" style="edgeStyle=orthogonalEdgeStyle;rounded=0;orthogonalLoop=1;jettySize=auto;html=1;" parent="1" source="eCKu4-VgmCrht83dg7p6-5" target="eCKu4-VgmCrht83dg7p6-7" edge="1">
          <mxGeometry relative="1" as="geometry" />
        </mxCell>
        <mxCell id="eCKu4-VgmCrht83dg7p6-5" value="由注册的静态方法进入对应模块处理" style="rounded=0;whiteSpace=wrap;html=1;" parent="1" vertex="1">
          <mxGeometry x="300" y="50" width="120" height="40" as="geometry" />
        </mxCell>
        <mxCell id="eCKu4-VgmCrht83dg7p6-15" style="edgeStyle=orthogonalEdgeStyle;rounded=0;orthogonalLoop=1;jettySize=auto;html=1;entryX=0.5;entryY=0;entryDx=0;entryDy=0;" parent="1" source="eCKu4-VgmCrht83dg7p6-6" target="eCKu4-VgmCrht83dg7p6-5" edge="1">
          <mxGeometry relative="1" as="geometry" />
        </mxCell>
        <mxCell id="eCKu4-VgmCrht83dg7p6-37" style="edgeStyle=orthogonalEdgeStyle;rounded=0;orthogonalLoop=1;jettySize=auto;html=1;entryX=0;entryY=0.5;entryDx=0;entryDy=0;exitX=0;exitY=0.5;exitDx=0;exitDy=0;" parent="1" source="eCKu4-VgmCrht83dg7p6-6" target="eCKu4-VgmCrht83dg7p6-31" edge="1">
          <mxGeometry relative="1" as="geometry" />
        </mxCell>
        <mxCell id="eCKu4-VgmCrht83dg7p6-6" value="是否读取到&lt;br&gt;最后一条信息" style="rhombus;whiteSpace=wrap;html=1;" parent="1" vertex="1">
          <mxGeometry x="115" y="280" width="110" height="70" as="geometry" />
        </mxCell>
        <mxCell id="eCKu4-VgmCrht83dg7p6-24" style="edgeStyle=orthogonalEdgeStyle;rounded=0;orthogonalLoop=1;jettySize=auto;html=1;entryX=0.5;entryY=0;entryDx=0;entryDy=0;" parent="1" source="eCKu4-VgmCrht83dg7p6-7" target="eCKu4-VgmCrht83dg7p6-10" edge="1">
          <mxGeometry relative="1" as="geometry" />
        </mxCell>
        <mxCell id="eCKu4-VgmCrht83dg7p6-30" style="edgeStyle=orthogonalEdgeStyle;rounded=0;orthogonalLoop=1;jettySize=auto;html=1;entryX=0.5;entryY=0;entryDx=0;entryDy=0;" parent="1" source="eCKu4-VgmCrht83dg7p6-7" target="eCKu4-VgmCrht83dg7p6-29" edge="1">
          <mxGeometry relative="1" as="geometry" />
        </mxCell>
        <mxCell id="eCKu4-VgmCrht83dg7p6-7" value="是否是预设&lt;br&gt;场景模板" style="rhombus;whiteSpace=wrap;html=1;" parent="1" vertex="1">
          <mxGeometry x="305" y="120" width="110" height="80" as="geometry" />
        </mxCell>
        <mxCell id="eCKu4-VgmCrht83dg7p6-25" style="edgeStyle=orthogonalEdgeStyle;rounded=0;orthogonalLoop=1;jettySize=auto;html=1;entryX=0.5;entryY=0;entryDx=0;entryDy=0;" parent="1" source="eCKu4-VgmCrht83dg7p6-10" target="eCKu4-VgmCrht83dg7p6-19" edge="1">
          <mxGeometry relative="1" as="geometry" />
        </mxCell>
        <mxCell id="eCKu4-VgmCrht83dg7p6-10" value="构建登录指令" style="rounded=0;whiteSpace=wrap;html=1;" parent="1" vertex="1">
          <mxGeometry x="500" y="50" width="110" height="30" as="geometry" />
        </mxCell>
        <mxCell id="eCKu4-VgmCrht83dg7p6-26" style="edgeStyle=orthogonalEdgeStyle;rounded=0;orthogonalLoop=1;jettySize=auto;html=1;" parent="1" source="eCKu4-VgmCrht83dg7p6-19" target="eCKu4-VgmCrht83dg7p6-22" edge="1">
          <mxGeometry relative="1" as="geometry" />
        </mxCell>
        <mxCell id="eCKu4-VgmCrht83dg7p6-19" value="构建创建编队指令" style="rounded=0;whiteSpace=wrap;html=1;" parent="1" vertex="1">
          <mxGeometry x="500" y="100" width="110" height="30" as="geometry" />
        </mxCell>
        <mxCell id="eCKu4-VgmCrht83dg7p6-28" style="edgeStyle=orthogonalEdgeStyle;rounded=0;orthogonalLoop=1;jettySize=auto;html=1;entryX=0.5;entryY=0;entryDx=0;entryDy=0;" parent="1" source="eCKu4-VgmCrht83dg7p6-21" target="eCKu4-VgmCrht83dg7p6-23" edge="1">
          <mxGeometry relative="1" as="geometry" />
        </mxCell>
        <mxCell id="eCKu4-VgmCrht83dg7p6-21" value="根据对冲场景、聚集场景、窄路场景、随机战场、量化行军等不同于设场景构建行军指令" style="rounded=0;whiteSpace=wrap;html=1;" parent="1" vertex="1">
          <mxGeometry x="470" y="200" width="170" height="50" as="geometry" />
        </mxCell>
        <mxCell id="eCKu4-VgmCrht83dg7p6-27" style="edgeStyle=orthogonalEdgeStyle;rounded=0;orthogonalLoop=1;jettySize=auto;html=1;entryX=0.5;entryY=0;entryDx=0;entryDy=0;" parent="1" source="eCKu4-VgmCrht83dg7p6-22" target="eCKu4-VgmCrht83dg7p6-21" edge="1">
          <mxGeometry relative="1" as="geometry" />
        </mxCell>
        <mxCell id="eCKu4-VgmCrht83dg7p6-22" value="构建出征指令" style="rounded=0;whiteSpace=wrap;html=1;" parent="1" vertex="1">
          <mxGeometry x="500" y="150" width="110" height="30" as="geometry" />
        </mxCell>
        <mxCell id="eCKu4-VgmCrht83dg7p6-34" style="edgeStyle=orthogonalEdgeStyle;rounded=0;orthogonalLoop=1;jettySize=auto;html=1;entryX=0.5;entryY=1;entryDx=0;entryDy=0;" parent="1" source="eCKu4-VgmCrht83dg7p6-23" target="eCKu4-VgmCrht83dg7p6-6" edge="1">
          <mxGeometry relative="1" as="geometry">
            <mxPoint x="170" y="360" as="targetPoint" />
            <Array as="points">
              <mxPoint x="435" y="290" />
              <mxPoint x="435" y="370" />
              <mxPoint x="170" y="370" />
            </Array>
          </mxGeometry>
        </mxCell>
        <mxCell id="eCKu4-VgmCrht83dg7p6-23" value="构建销毁指令" style="rounded=0;whiteSpace=wrap;html=1;" parent="1" vertex="1">
          <mxGeometry x="500" y="270" width="110" height="30" as="geometry" />
        </mxCell>
        <mxCell id="eCKu4-VgmCrht83dg7p6-33" style="edgeStyle=orthogonalEdgeStyle;rounded=0;orthogonalLoop=1;jettySize=auto;html=1;entryX=0.5;entryY=1;entryDx=0;entryDy=0;" parent="1" source="eCKu4-VgmCrht83dg7p6-29" target="eCKu4-VgmCrht83dg7p6-6" edge="1">
          <mxGeometry relative="1" as="geometry">
            <mxPoint x="200" y="360" as="targetPoint" />
            <Array as="points">
              <mxPoint x="360" y="290" />
              <mxPoint x="435" y="290" />
              <mxPoint x="435" y="370" />
              <mxPoint x="170" y="370" />
            </Array>
          </mxGeometry>
        </mxCell>
        <mxCell id="eCKu4-VgmCrht83dg7p6-29" value="构建指令（登录/创建编队/出征/行军/销毁）" style="rounded=0;whiteSpace=wrap;html=1;" parent="1" vertex="1">
          <mxGeometry x="297.5" y="230" width="125" height="35" as="geometry" />
        </mxCell>
        <mxCell id="eCKu4-VgmCrht83dg7p6-35" style="edgeStyle=orthogonalEdgeStyle;rounded=0;orthogonalLoop=1;jettySize=auto;html=1;exitX=0.5;exitY=1;exitDx=0;exitDy=0;entryX=0.5;entryY=0;entryDx=0;entryDy=0;" parent="1" source="eCKu4-VgmCrht83dg7p6-31" target="eCKu4-VgmCrht83dg7p6-32" edge="1">
          <mxGeometry relative="1" as="geometry" />
        </mxCell>
        <mxCell id="eCKu4-VgmCrht83dg7p6-31" value="构建快照文件" style="rounded=0;whiteSpace=wrap;html=1;" parent="1" vertex="1">
          <mxGeometry x="115" y="390" width="110" height="30" as="geometry" />
        </mxCell>
        <mxCell id="eCKu4-VgmCrht83dg7p6-32" value="结束" style="rounded=1;whiteSpace=wrap;html=1;fontSize=12;glass=0;strokeWidth=1;shadow=0;" parent="1" vertex="1">
          <mxGeometry x="130" y="450" width="80" height="30" as="geometry" />
        </mxCell>
        <mxCell id="eCKu4-VgmCrht83dg7p6-36" value="是" style="text;html=1;strokeColor=none;fillColor=none;align=center;verticalAlign=middle;whiteSpace=wrap;rounded=0;" parent="1" vertex="1">
          <mxGeometry x="70" y="290" width="60" height="30" as="geometry" />
        </mxCell>
        <mxCell id="eCKu4-VgmCrht83dg7p6-38" value="是" style="text;html=1;strokeColor=none;fillColor=none;align=center;verticalAlign=middle;whiteSpace=wrap;rounded=0;" parent="1" vertex="1">
          <mxGeometry x="395" y="130" width="60" height="30" as="geometry" />
        </mxCell>
        <mxCell id="eCKu4-VgmCrht83dg7p6-39" value="否" style="text;html=1;strokeColor=none;fillColor=none;align=center;verticalAlign=middle;whiteSpace=wrap;rounded=0;" parent="1" vertex="1">
          <mxGeometry x="200" y="290" width="60" height="30" as="geometry" />
        </mxCell>
        <mxCell id="eCKu4-VgmCrht83dg7p6-40" value="否" style="text;html=1;strokeColor=none;fillColor=none;align=center;verticalAlign=middle;whiteSpace=wrap;rounded=0;" parent="1" vertex="1">
          <mxGeometry x="310" y="200" width="60" height="30" as="geometry" />
        </mxCell>
      </root>
    </mxGraphModel>
  </diagram>
</mxfile>
